<?xml version="1.0"?><svg width="611.78571" height="593.40845" xmlns="http://www.w3.org/2000/svg">
 <title>Half Sun</title>

 <metadata id="metadata20">image/svg+xmlkeep out sunlight protection uv ultraviolet ultra-violet burns beach hut building structure rays summer heat sign symbol</metadata>
 <g>
  <title>Layer 1</title>
  <g id="layer1">
   <g id="g32373">
    <path d="m308.232971,9.99969c0,81.47965 0,81.47965 0,81.47965" id="path2270" stroke-miterlimit="4" stroke-linecap="round" stroke-width="20" stroke="#fddf00" fill-rule="evenodd" fill="none"/>
    <path d="m356.789825,177.00708a48.575459,50.00116 0 1 1 -97.150909,0a48.575459,50.00116 0 1 1 97.150909,0z" id="path5180" stroke-miterlimit="4" stroke-width="0.043" fill="#fddf00"/>
    <path d="m356.627441,108.594017c49.602325,-72.459438 49.602325,-72.459438 49.602325,-72.459438" id="path10042" stroke-miterlimit="4" stroke-linejoin="round" stroke-linecap="round" stroke-width="19.503416" stroke="#fddf00" fill-rule="evenodd" fill="none"/>
    <path d="m388.675751,149.045715c143.71994,-52.291382 143.71994,-52.291382 143.71994,-52.291382" id="path12953" stroke-miterlimit="4" stroke-linejoin="round" stroke-linecap="round" stroke-width="20.208597" stroke="#fddf00" fill-rule="evenodd" fill="none"/>
    <path d="m308.214294,263.43576c0,126.785706 0,126.785706 0,126.785706" id="path19748" stroke-miterlimit="4" stroke-linejoin="round" stroke-linecap="round" stroke-width="20" stroke="#fddf00" fill-rule="evenodd" fill="none"/>
    <path d="m364.365753,244.587189c216.625641,256.268524 216.625641,256.268524 216.625641,256.268524" id="path20719" stroke-miterlimit="4" stroke-linejoin="round" stroke-linecap="round" stroke-width="19.445738" stroke="#fddf00" fill-rule="evenodd" fill="none"/>
    <path d="m390.973358,200.837646c211.267548,56.267609 211.267548,56.267609 211.267548,56.267609" id="path21690" stroke-miterlimit="4" stroke-linejoin="round" stroke-linecap="round" stroke-width="19.089554" stroke="#fddf00" fill-rule="evenodd" fill="none"/>
   </g>
  </g>
 </g>
</svg>